<svg width="53" height="48" viewBox="0 0 53 48" xmlns="http://www.w3.org/2000/svg"><path d="M28.235 17.88v23.089a5.223 5.223 0 01-5.217 5.215 5.224 5.224 0 01-4.955-3.585l-.003-.01a1.414 1.414 0 011.362-1.794c.626 0 1.155.405 1.343.963l.003.007a2.391 2.391 0 002.25 1.589 2.39 2.39 0 002.388-2.385l-.003-23.133.001-.006c0-.07.051-.128.12-.135l.01-.002a12.03 12.03 0 012.572.024l.007.002c.066.006.12.064.12.133l.002.027zM1.056 17.66a.16.16 0 01-.232-.201l.007-.012C5.211 7.47 15.18.501 26.774.501c11.6 0 21.57 6.975 25.945 16.962l.003.01a.15.15 0 01.015.064.16.16 0 01-.159.159.18.18 0 01-.075-.02l-.022-.007c-2.009-1.185-4.815-1.919-7.92-1.919-3.584 0-6.77.98-8.79 2.498l-.01.007a.16.16 0 01-.194 0l-.01-.006c-2.024-1.52-5.21-2.499-8.795-2.499-3.584 0-6.77.98-8.793 2.5l-.008.004a.163.163 0 01-.189.009l-.013-.012c-2.022-1.52-5.213-2.501-8.798-2.501-3.09 0-5.881.726-7.888 1.9l-.017.011z" fill="#F50002"/></svg>