<?xml version="1.0" encoding="UTF-8"?>
<svg id="Layer_1" xmlns="http://www.w3.org/2000/svg" version="1.1" viewBox="0 0 3800 1000">
  <!-- Generator: Adobe Illustrator 29.6.1, SVG Export Plug-In . SVG Version: 2.1.1 Build 9)  -->
  <defs>
    <style>
      .st0 {
        fill: #f2665b;
      }
    </style>
  </defs>
  <path class="st0" d="M290,770h710v230H250C111.9,1000,0,888.1,0,750V0h250v730c0,22.1,17.9,40,40,40ZM840,230h460c22.1,0,40,17.9,40,40v730h250V270c0-22.1,17.9-40,40-40h460V0H840v230ZM3349.3,0s-22-1.5-33.1,9.8c-13.7,14-27.8,52.4-27.8,52.4l-238.4,605.1-238.4-605.1s-14.1-38.4-27.8-52.4c-11.1-11.3-33.1-9.8-33.1-9.8h-450.7v999.8h250V238.4c0-13.8,12.2-25,24.6-25,25.3,0,35.9,30.3,48.7,62.9,12.8,32.6,274.1,685.8,274.1,685.8,9,22.9,31.2,38,55.8,38h193.6c24.6,0,46.8-15.1,55.8-38,0,0,261.3-653.2,274.1-685.8,12.8-32.6,23.4-62.9,48.7-62.9s24.6,11.2,24.6,25v761.6h250V0h-450.7Z"/>
</svg>